<?xml version="1.0" encoding="utf-8"?>
<!-- Generator: Adobe Illustrator 23.0.2, SVG Export Plug-In . SVG Version: 6.00 Build 0)  -->
<svg version="1.1" id="Layer_1" xmlns="http://www.w3.org/2000/svg" xmlns:xlink="http://www.w3.org/1999/xlink" x="0px" y="0px"
	 viewBox="0 0 612 792" style="enable-background:new 0 0 612 792;" xml:space="preserve">
<style type="text/css">
	.st0{opacity:0;fill:#E0E0E0;}
	.st1{fill:#0A9EC1;}
</style>
<rect x="118" y="48.9" class="st0" width="256" height="256"/>
<path class="st1" d="M361.7,156.5v-28.7c0-2.7-0.7-5.1-1.7-7.5c-0.7-2.7-2-4.8-3.8-6.5c-1.7-1.7-3.8-3.1-5.8-4.1
	c-2.7-0.3-4.8-1-7.5-1h-6.5v7.5h6.5c7.5,0,11.3,3.8,11.3,11.6v28.7c0,1.7,0.7,3.1,1,4.8c0.7,1.7,1.7,3.1,2.7,4.8s2,2.7,3.8,3.8
	s3.1,1.7,4.8,2c-1.7,0.3-3.1,1-4.8,2c-1.7,1-2.7,2-3.8,3.8c-1,1.7-2,3.1-2.7,4.8c-0.7,1.7-1,3.1-1,4.8v29c0,7.5-3.8,11.6-11.3,11.6
	h-6.5v7.2h6.5c2.7,0,5.5-0.7,7.5-1.7s4.4-2,5.8-4.1c1.7-1.7,3.1-3.8,3.8-5.8c1-2,1.7-4.8,1.7-7.9v-29c0-7.5,4.4-11.6,12.3-11.6v-7.5
	C366.1,168.2,361.7,164.4,361.7,156.5z M141.5,110.5c-2,0.3-4.4,2-5.8,3.4c-1.4,1.4-2.7,3.8-3.8,5.8c-1,2.7-1,5.5-1,8.2v28.7
	c0,7.5-4.4,11.6-13,11.6v7.5c8.5,0,13,3.8,13,11.6v29c0,2.7,0.7,5.1,1.7,7.9c0.7,2,1.7,4.1,3.1,5.8c1.7,1.7,3.8,3.1,5.8,4.1
	c2.7,0.3,4.8,1,7.5,1h6.5v-7.9H149c-7.5,0-11.3-3.8-11.3-11.6v-29c0-1.7-0.7-3.1-1-4.8c-0.7-1.4-1.7-3.1-2.7-4.8s-2-2.4-3.8-3.4
	s-2.7-1.7-4.8-2c1.7-0.3,3.1-1,4.8-2c1.7-1,2.7-2,3.8-3.8s1.7-3.1,2-4.8c0.7-1.7,1-3.1,1-4.8v-28.3c0-7.5,3.8-11.6,11.3-11.6h6.8
	v-7.5H149C146.3,108.8,144.2,109.4,141.5,110.5z M227.9,132.3l-31.4-23.6l4.4,48.8L187.6,176l5.5,18.1c6.5,2.7,12.3,5.8,17.7,10.6
	c0.7-5.1,1.7-13.3,2.7-16.7l-10.2,1.7C206.4,168.8,215.6,149.7,227.9,132.3z M295.5,108.8c-30,22.5-39.6,25.9-50.5,53.6l15.4-3.1
	c-19.1,20.1-31.1,46.4-33.1,66.9l3.8,8.9h30c4.8-10.6,11.6-31.7,37.2-41l5.8-17.7l-13.3-18.4L295.5,108.8z M246,225.2l-9.6-13.7
	h18.8L246,225.2z M252.8,180.4l24.6-11.9C272.2,180.8,269.9,182.8,252.8,180.4z M238.4,180.4l-24.6-11.9
	C219.7,180.8,221.4,182.8,238.4,180.4z"/>
</svg>
