<?xml version="1.0" encoding="utf-8"?>
<!-- Generator: Adobe Illustrator 23.0.2, SVG Export Plug-In . SVG Version: 6.00 Build 0)  -->
<svg version="1.1" id="Layer_1" xmlns="http://www.w3.org/2000/svg" xmlns:xlink="http://www.w3.org/1999/xlink" x="0px" y="0px"
	 viewBox="0 0 612 792" style="enable-background:new 0 0 612 792;" xml:space="preserve">
<style type="text/css">
	.st0{fill:#BBC2C4;}
</style>
<path class="st0" d="M71.4,14V5.6c0-0.8-0.2-1.5-0.5-2.2c-0.2-0.8-0.6-1.4-1.1-1.9s-1.1-0.9-1.7-1.2C67.3,0.2,66.7,0,65.9,0h-1.9
	v2.2h1.9c2.2,0,3.3,1.1,3.3,3.4V14c0,0.5,0.2,0.9,0.3,1.4c0.2,0.5,0.5,0.9,0.8,1.4c0.3,0.5,0.6,0.8,1.1,1.1c0.5,0.3,0.9,0.5,1.4,0.6
	c-0.5,0.1-0.9,0.3-1.4,0.6c-0.5,0.3-0.8,0.6-1.1,1.1s-0.6,0.9-0.8,1.4c-0.2,0.5-0.3,0.9-0.3,1.4v8.5c0,2.2-1.1,3.4-3.3,3.4h-1.9V37
	h1.9c0.8,0,1.6-0.2,2.2-0.5s1.3-0.6,1.7-1.2c0.5-0.5,0.9-1.1,1.1-1.7c0.3-0.6,0.5-1.4,0.5-2.3v-8.5c0-2.2,1.3-3.4,3.6-3.4v-2.2
	C72.7,17.4,71.4,16.3,71.4,14z M6.9,0.5C6.3,0.6,5.6,1.1,5.2,1.5S4.4,2.6,4.1,3.2C3.8,4,3.8,4.8,3.8,5.6V14c0,2.2-1.3,3.4-3.8,3.4
	v2.2c2.5,0,3.8,1.1,3.8,3.4v8.5c0,0.8,0.2,1.5,0.5,2.3c0.2,0.6,0.5,1.2,0.9,1.7c0.5,0.5,1.1,0.9,1.7,1.2C7.7,36.8,8.3,37,9.1,37h1.9
	v-2.3H9.1c-2.2,0-3.3-1.1-3.3-3.4v-8.5c0-0.5-0.2-0.9-0.3-1.4C5.3,21,5,20.5,4.7,20S4.1,19.3,3.6,19s-0.8-0.5-1.4-0.6
	c0.5-0.1,0.9-0.3,1.4-0.6c0.5-0.3,0.8-0.6,1.1-1.1s0.5-0.9,0.6-1.4c0.2-0.5,0.3-0.9,0.3-1.4V5.6c0-2.2,1.1-3.4,3.3-3.4h2V0H9.1
	C8.3,0,7.7,0.2,6.9,0.5z M32.2,6.9L23,0l1.3,14.3l-3.9,5.4L22,25c1.9,0.8,3.6,1.7,5.2,3.1c0.2-1.5,0.5-3.9,0.8-4.9l-3,0.5
	C25.9,17.6,28.6,12,32.2,6.9z M52,0c-8.8,6.6-11.6,7.6-14.8,15.7l4.5-0.9c-5.6,5.9-9.1,13.6-9.7,19.6l1.1,2.6h8.8
	c1.4-3.1,3.4-9.3,10.9-12l1.7-5.2l-3.9-5.4L52,0z M37.5,34.1l-2.8-4h5.5L37.5,34.1z M39.5,21l7.2-3.5C45.2,21.1,44.5,21.7,39.5,21z
	 M35.3,21l-7.2-3.5C29.8,21.1,30.3,21.7,35.3,21z"/>
</svg>
